# xmcd CD database file
#
# Track frame offsets:
#	150
#	20819
#	39035
#	63836
#	90664
#
# Disc length: 1464 seconds
#
# Revision: 1
# Processed by: cddbd v1.5.2PL0 Copyright (c) Steve Scherf et al.
# Submitted via: CDex 1.70beta2
#
DISCID=3205b605
DTITLE=4D Tribe - Temple of the Jaguar
DYEAR=1900
DGENRE=Jazz
TTITLE0=Breathe
TTITLE1=Temple of the Jaguar
TTITLE2=Sound Current
TTITLE3=We Are One
TTITLE4=Remembering the Land
EXTD=
EXTT0=
EXTT1=
EXTT2=
EXTT3=
EXTT4=
PLAYORDER=
